PathFileType	4	(X/Y/Z)	C:\Users\italobelli\Desktop\GitHub\PTbot_officialCBL\Personal_Results\SHRUG01_noisy2.trc
DataRate	CameraRate	NumFrames	NumMarkers	Units	OrigDataRate	OrigDataStartFrame	OrigNumFrames
110.888889	110.888889	29	9	m	110.888889	438	500
Frame#	Time		gu		centelbow		EpL		centpxt8		centijc7		ij		ts		aa		ai
			X1	Y1	Z1	X2	Y2	Z2	X3	Y3	Z3	X4	Y4	Z4	X5	Y5	Z5	X6	Y6	Z6	X7	Y7	Z7	X8	Y8	Z8	X9	Y9	Z9

438	3.9409	-0.082237	-0.012574	0.16482	-0.11435	-0.26035	0.2005	-0.091941	-0.25544	0.22315	-0.046816	-0.15316	-0.008669	-0.046816	0.031938	-0.008669	0	0	0	-0.14003	0.03011	0.054081	-0.10915	0.026099	0.16921	-0.16426	-0.080483	0.062127
439	3.9499	-0.082236	-0.012545	0.16482	-0.11421	-0.26038	0.20066	-0.0918	-0.25547	0.22331	-0.046816	-0.15316	-0.008669	-0.046816	0.031938	-0.008669	0	0	0	-0.14004	0.030105	0.054094	-0.10915	0.026112	0.16922	-0.16427	-0.080487	0.06216
440	3.9589	-0.082234	-0.012517	0.16482	-0.11406	-0.26041	0.20082	-0.091658	-0.2555	0.22347	-0.046816	-0.15316	-0.008669	-0.046816	0.031938	-0.008669	0	0	0	-0.14004	0.0301	0.054106	-0.10915	0.026125	0.16923	-0.16428	-0.080491	0.062192
441	3.9679	-0.082232	-0.012488	0.16483	-0.11392	-0.26044	0.20098	-0.091516	-0.25553	0.22364	-0.046816	-0.15316	-0.008669	-0.046816	0.031938	-0.008669	0	0	0	-0.14005	0.030095	0.054119	-0.10915	0.026138	0.16925	-0.1643	-0.080495	0.062225
442	3.977	-0.082228	-0.012459	0.16483	-0.11378	-0.26047	0.20114	-0.091375	-0.25555	0.22379	-0.046816	-0.15316	-0.008669	-0.046816	0.031938	-0.008669	0	0	0	-0.14006	0.030091	0.054132	-0.10915	0.026152	0.16926	-0.16431	-0.080499	0.062258
443	3.986	-0.082224	-0.01243	0.16483	-0.11364	-0.26049	0.2013	-0.091234	-0.25557	0.22395	-0.046816	-0.15316	-0.008669	-0.046816	0.031938	-0.008669	0	0	0	-0.14006	0.030088	0.054145	-0.10915	0.026167	0.16927	-0.16432	-0.080502	0.062292
444	3.995	-0.082219	-0.0124	0.16484	-0.1135	-0.26051	0.20145	-0.091093	-0.25559	0.22411	-0.046816	-0.15316	-0.008669	-0.046816	0.031938	-0.008669	0	0	0	-0.14007	0.030084	0.054158	-0.10915	0.026182	0.16928	-0.16432	-0.080505	0.062325
445	4.004	-0.082213	-0.012371	0.16484	-0.11336	-0.26053	0.20161	-0.090952	-0.25561	0.22427	-0.046816	-0.15316	-0.008669	-0.046816	0.031938	-0.008669	0	0	0	-0.14007	0.030082	0.054172	-0.10915	0.026198	0.1693	-0.16433	-0.080508	0.062359
446	4.013	-0.082206	-0.01234	0.16485	-0.11321	-0.26054	0.20177	-0.090806	-0.25562	0.22443	-0.046816	-0.15316	-0.008669	-0.046816	0.031938	-0.008669	0	0	0	-0.14008	0.030079	0.054187	-0.10915	0.026216	0.16931	-0.16434	-0.080511	0.062396
447	4.022	-0.082196	-0.012309	0.16486	-0.11306	-0.26056	0.20193	-0.090652	-0.25563	0.22459	-0.046816	-0.15316	-0.008669	-0.046816	0.031938	-0.008669	0	0	0	-0.14008	0.030077	0.054204	-0.10914	0.026235	0.16932	-0.16434	-0.080514	0.062435
448	4.0311	-0.082185	-0.012277	0.16487	-0.1129	-0.26057	0.2021	-0.090492	-0.25564	0.22476	-0.046816	-0.15316	-0.008669	-0.046816	0.031938	-0.008669	0	0	0	-0.14008	0.030074	0.054222	-0.10913	0.026256	0.16934	-0.16435	-0.080517	0.062476
449	4.0401	-0.082171	-0.012244	0.16488	-0.11273	-0.26059	0.20227	-0.090326	-0.25565	0.22493	-0.046816	-0.15316	-0.008669	-0.046816	0.031938	-0.008669	0	0	0	-0.14008	0.030072	0.054242	-0.10913	0.026278	0.16936	-0.16434	-0.08052	0.062521
450	4.0491	-0.082156	-0.01221	0.1649	-0.11256	-0.2606	0.20244	-0.090153	-0.25566	0.2251	-0.046816	-0.15316	-0.008669	-0.046816	0.031938	-0.008669	0	0	0	-0.14008	0.030069	0.054263	-0.10912	0.026301	0.16938	-0.16434	-0.080523	0.062568
451	4.0581	-0.08214	-0.012176	0.16492	-0.11238	-0.26061	0.20262	-0.089973	-0.25567	0.22527	-0.046816	-0.15316	-0.008669	-0.046816	0.031938	-0.008669	0	0	0	-0.14008	0.030067	0.054285	-0.10911	0.026326	0.1694	-0.16433	-0.080526	0.062617
452	4.0671	-0.082121	-0.01214	0.16494	-0.1122	-0.26062	0.2028	-0.089788	-0.25567	0.22545	-0.046816	-0.15316	-0.008669	-0.046816	0.031938	-0.008669	0	0	0	-0.14008	0.030064	0.054309	-0.10909	0.026352	0.16942	-0.16433	-0.080529	0.062669
453	4.0762	-0.082101	-0.012104	0.16496	-0.11201	-0.26063	0.20298	-0.089596	-0.25568	0.22563	-0.046816	-0.15316	-0.008669	-0.046816	0.031938	-0.008669	0	0	0	-0.14008	0.030062	0.054334	-0.10908	0.026379	0.16944	-0.16432	-0.080533	0.062723
454	4.0852	-0.082079	-0.012067	0.16499	-0.11181	-0.26064	0.20317	-0.089399	-0.25568	0.22581	-0.046816	-0.15316	-0.008669	-0.046816	0.031938	-0.008669	0	0	0	-0.14008	0.030059	0.054361	-0.10906	0.026408	0.16947	-0.1643	-0.080536	0.062779
455	4.0942	-0.082056	-0.01203	0.16502	-0.11161	-0.26064	0.20335	-0.089195	-0.25569	0.226	-0.046816	-0.15316	-0.008669	-0.046816	0.031938	-0.008669	0	0	0	-0.14007	0.030057	0.054389	-0.10904	0.026438	0.16949	-0.16429	-0.080539	0.062838
456	4.1032	-0.082031	-0.011991	0.16504	-0.11141	-0.26065	0.20354	-0.088986	-0.25569	0.22619	-0.046816	-0.15316	-0.008669	-0.046816	0.031938	-0.008669	0	0	0	-0.14007	0.030055	0.054418	-0.10903	0.026469	0.16952	-0.16427	-0.080542	0.062898
457	4.1122	-0.082005	-0.011952	0.16508	-0.11119	-0.26066	0.20374	-0.088772	-0.25569	0.22637	-0.046816	-0.15316	-0.008669	-0.046816	0.031938	-0.008669	0	0	0	-0.14006	0.030052	0.054448	-0.109	0.026502	0.16955	-0.16425	-0.080545	0.062961
458	4.1212	-0.081977	-0.011912	0.16511	-0.11098	-0.26066	0.20393	-0.088552	-0.25568	0.22657	-0.046816	-0.15316	-0.008669	-0.046816	0.031938	-0.008669	0	0	0	-0.14005	0.03005	0.05448	-0.10898	0.026535	0.16957	-0.16423	-0.080548	0.063026
459	4.1303	-0.081948	-0.011872	0.16515	-0.11075	-0.26067	0.20413	-0.088326	-0.25568	0.22676	-0.046816	-0.15316	-0.008669	-0.046816	0.031938	-0.008669	0	0	0	-0.14004	0.030048	0.054512	-0.10896	0.02657	0.1696	-0.16421	-0.080551	0.063093
460	4.1393	-0.081917	-0.011831	0.16518	-0.11053	-0.26067	0.20433	-0.088096	-0.25568	0.22696	-0.046816	-0.15316	-0.008669	-0.046816	0.031938	-0.008669	0	0	0	-0.14004	0.030046	0.054546	-0.10894	0.026606	0.16963	-0.16418	-0.080555	0.063162
461	4.1483	-0.081885	-0.011789	0.16522	-0.11029	-0.26067	0.20454	-0.08786	-0.25567	0.22716	-0.046816	-0.15316	-0.008669	-0.046816	0.031938	-0.008669	0	0	0	-0.14003	0.030043	0.054581	-0.10891	0.026642	0.16966	-0.16415	-0.080558	0.063233
462	4.1573	-0.081852	-0.011747	0.16526	-0.11006	-0.26068	0.20474	-0.08762	-0.25567	0.22736	-0.046816	-0.15316	-0.008669	-0.046816	0.031938	-0.008669	0	0	0	-0.14002	0.030041	0.054617	-0.10888	0.02668	0.1697	-0.16413	-0.080561	0.063306
463	4.1663	-0.081817	-0.011704	0.1653	-0.10982	-0.26068	0.20495	-0.087374	-0.25566	0.22756	-0.046816	-0.15316	-0.008669	-0.046816	0.031938	-0.008669	0	0	0	-0.14001	0.030039	0.054654	-0.10886	0.026719	0.16973	-0.1641	-0.080564	0.06338
464	4.1754	-0.081782	-0.011661	0.16535	-0.10957	-0.26068	0.20516	-0.087124	-0.25566	0.22777	-0.046816	-0.15316	-0.008669	-0.046816	0.031938	-0.008669	0	0	0	-0.14	0.030037	0.054692	-0.10883	0.026759	0.16976	-0.16406	-0.080567	0.063457
465	4.1844	-0.081745	-0.011616	0.16539	-0.10932	-0.26068	0.20538	-0.08687	-0.25565	0.22797	-0.046816	-0.15316	-0.008669	-0.046816	0.031938	-0.008669	0	0	0	-0.13998	0.030035	0.054731	-0.1088	0.0268	0.1698	-0.16403	-0.08057	0.063535
466	4.1934	-0.081706	-0.011572	0.16544	-0.10906	-0.26068	0.20559	-0.086611	-0.25564	0.22818	-0.046816	-0.15316	-0.008669	-0.046816	0.031938	-0.008669	0	0	0	-0.13997	0.030033	0.054771	-0.10876	0.026842	0.16983	-0.164	-0.080573	0.063614
